<svg width="36" height="42" viewBox="0 0 36 42" fill="none" xmlns="http://www.w3.org/2000/svg">
<path d="M25.7777 26.4443C25.7777 26.8569 25.6138 27.2526 25.3221 27.5443C25.0304 27.836 24.6347 27.9999 24.2222 27.9999H11.7776C11.3651 27.9999 10.9694 27.836 10.6777 27.5443C10.386 27.2526 10.2221 26.8569 10.2221 26.4443C10.2221 26.0318 10.386 25.6361 10.6777 25.3444C10.9694 25.0527 11.3651 24.8888 11.7776 24.8888H24.2222C24.6347 24.8888 25.0304 25.0527 25.3221 25.3444C25.6138 25.6361 25.7777 26.0318 25.7777 26.4443ZM24.2222 18.6665H11.7776C11.3651 18.6665 10.9694 18.8304 10.6777 19.1221C10.386 19.4138 10.2221 19.8095 10.2221 20.2221C10.2221 20.6346 10.386 21.0303 10.6777 21.322C10.9694 21.6138 11.3651 21.7776 11.7776 21.7776H24.2222C24.6347 21.7776 25.0304 21.6138 25.3221 21.322C25.6138 21.0303 25.7777 20.6346 25.7777 20.2221C25.7777 19.8095 25.6138 19.4138 25.3221 19.1221C25.0304 18.8304 24.6347 18.6665 24.2222 18.6665ZM35.1111 6.22198V38.8889C35.1111 39.714 34.7833 40.5053 34.1999 41.0888C33.6164 41.6722 32.8251 42 32 42H3.9998C3.17468 42 2.38335 41.6722 1.7999 41.0888C1.21645 40.5053 0.888672 39.714 0.888672 38.8889V6.22198C0.888672 5.39686 1.21645 4.60553 1.7999 4.02208C2.38335 3.43863 3.17468 3.11085 3.9998 3.11085H11.0504C11.9244 2.13225 12.9953 1.34928 14.1929 0.813198C15.3905 0.277113 16.6878 0 17.9999 0C19.312 0 20.6093 0.277113 21.8069 0.813198C23.0045 1.34928 24.0753 2.13225 24.9494 3.11085H32C32.8251 3.11085 33.6164 3.43863 34.1999 4.02208C34.7833 4.60553 35.1111 5.39686 35.1111 6.22198ZM11.7776 9.33311H24.2222C24.2222 7.68287 23.5666 6.10021 22.3997 4.93331C21.2328 3.76641 19.6501 3.11085 17.9999 3.11085C16.3497 3.11085 14.767 3.76641 13.6001 4.93331C12.4332 6.10021 11.7776 7.68287 11.7776 9.33311ZM32 6.22198H26.7986C27.1524 7.22108 27.3333 8.27321 27.3333 9.33311V10.8887C27.3333 11.3012 27.1694 11.6969 26.8777 11.9886C26.586 12.2804 26.1903 12.4442 25.7777 12.4442H10.2221C9.80951 12.4442 9.41384 12.2804 9.12212 11.9886C8.83039 11.6969 8.6665 11.3012 8.6665 10.8887V9.33311C8.66654 8.27321 8.84737 7.22108 9.20123 6.22198H3.9998V38.8889H32V6.22198Z" fill="#FFBD14"/>
</svg>
