<svg width="14" height="13" viewBox="0 0 14 13" fill="none" xmlns="http://www.w3.org/2000/svg">
<path d="M7.39516 5.62761C7.37735 5.52925 7.32337 5.44113 7.24383 5.38059C7.16429 5.32004 7.06497 5.29148 6.96542 5.30051C6.86587 5.30954 6.77331 5.35552 6.70597 5.42938C6.63863 5.50325 6.60138 5.59965 6.60156 5.69961V9.30121L6.60796 9.37321C6.62577 9.47157 6.67976 9.55969 6.7593 9.62023C6.83883 9.68077 6.93816 9.70934 7.03771 9.70031C7.13725 9.69128 7.22981 9.6453 7.29716 9.57144C7.3645 9.49757 7.40175 9.40117 7.40156 9.30121V5.69961L7.39516 5.62761ZM7.64076 3.89961C7.64076 3.74048 7.57755 3.58787 7.46503 3.47535C7.35251 3.36282 7.19989 3.29961 7.04076 3.29961C6.88163 3.29961 6.72902 3.36282 6.6165 3.47535C6.50398 3.58787 6.44076 3.74048 6.44076 3.89961C6.44076 4.05874 6.50398 4.21135 6.6165 4.32387C6.72902 4.4364 6.88163 4.49961 7.04076 4.49961C7.19989 4.49961 7.35251 4.4364 7.46503 4.32387C7.57755 4.21135 7.64076 4.05874 7.64076 3.89961ZM13.4016 6.49961C13.4016 4.80222 12.7273 3.17436 11.527 1.97413C10.3268 0.773893 8.69895 0.0996094 7.00156 0.0996094C5.30418 0.0996094 3.67631 0.773893 2.47608 1.97413C1.27585 3.17436 0.601563 4.80222 0.601562 6.49961C0.601563 8.19699 1.27585 9.82486 2.47608 11.0251C3.67631 12.2253 5.30418 12.8996 7.00156 12.8996C8.69895 12.8996 10.3268 12.2253 11.527 11.0251C12.7273 9.82486 13.4016 8.19699 13.4016 6.49961ZM1.40156 6.49961C1.40156 5.76421 1.54641 5.03601 1.82784 4.35658C2.10926 3.67716 2.52176 3.05982 3.04176 2.53981C3.56177 2.0198 4.17911 1.60731 4.85854 1.32588C5.53796 1.04446 6.26616 0.899609 7.00156 0.899609C7.73697 0.899609 8.46517 1.04446 9.14459 1.32588C9.82401 1.60731 10.4414 2.0198 10.9614 2.53981C11.4814 3.05982 11.8939 3.67716 12.1753 4.35658C12.4567 5.03601 12.6016 5.76421 12.6016 6.49961C12.6016 7.98482 12.0116 9.4092 10.9614 10.4594C9.91116 11.5096 8.48677 12.0996 7.00156 12.0996C5.51635 12.0996 4.09197 11.5096 3.04176 10.4594C1.99156 9.4092 1.40156 7.98482 1.40156 6.49961Z" fill="white"/>
</svg>
