<svg width="14" height="10" viewBox="0 0 14 10" fill="none" xmlns="http://www.w3.org/2000/svg">
<path d="M12.7128 0H1.225C0.548173 0 0 0.562834 0 1.25V8.75C0 9.44121 0.552203 10 1.225 10H12.7128C13.3839 10 13.9378 9.44357 13.9378 8.75V1.25C13.9378 0.564056 13.3918 0 12.7128 0ZM12.5412 0.833336C12.2909 1.08736 7.98378 5.45925 7.8351 5.61019C7.60368 5.84631 7.2961 5.97631 6.96888 5.97631C6.64168 5.97631 6.33407 5.84627 6.10191 5.60941C6.0019 5.50789 1.7423 1.18427 1.39656 0.833336H12.5412ZM0.816669 8.58043V1.42014L4.34571 5.00222L0.816669 8.58043ZM1.39707 9.16664L4.92472 5.58991L5.52521 6.19944C5.91084 6.59294 6.42355 6.80964 6.96888 6.80964C7.51422 6.80964 8.02697 6.59294 8.41183 6.20022L9.01306 5.58991L12.5407 9.16664H1.39707ZM13.1211 8.58043L9.5921 5.00222L13.1211 1.42014V8.58043Z" fill="white"/>
</svg>
